<?xml version="1.0" standalone="no"?>
<!DOCTYPE svg PUBLIC "-//W3C//DTD SVG 20010904//EN"
 "http://www.w3.org/TR/2001/REC-SVG-20010904/DTD/svg10.dtd">
<svg version="1.0" xmlns="http://www.w3.org/2000/svg"
 width="700.000000pt" height="700.000000pt" viewBox="0 0 700.000000 700.000000"
 preserveAspectRatio="xMidYMid meet">
<metadata>
Created by potrace 1.11, written by Peter Selinger 2001-2013
</metadata>
<g transform="translate(0.000000,700.000000) scale(0.100000,-0.100000)"
fill="#000000" stroke="none">
<path d="M4080 6955 c-7 -8 -16 -15 -21 -15 -11 0 -85 -45 -236 -143 -105 -68
-122 -82 -118 -101 14 -55 20 -157 12 -216 -4 -36 -8 -76 -10 -89 -2 -20 11
-33 67 -72 101 -68 99 -67 210 -148 237 -175 520 -432 719 -655 39 -44 74 -83
77 -86 21 -21 152 -186 222 -280 224 -303 395 -598 543 -936 56 -126 148 -365
169 -440 4 -12 16 -24 27 -27 15 -4 23 2 33 26 7 18 34 79 59 137 103 241 202
555 253 805 25 125 35 177 39 210 3 22 8 51 10 65 3 14 7 48 11 75 3 28 7 61
9 73 12 70 20 251 20 437 l0 210 -40 45 c-160 182 -430 424 -625 561 -245 174
-564 337 -855 438 -117 41 -360 109 -420 118 -16 2 -46 8 -65 14 -50 13 -76
11 -90 -6z"/>
<path d="M1820 6598 c-19 -11 -78 -46 -130 -76 -52 -31 -97 -59 -100 -62 -3
-3 -48 -34 -100 -69 -52 -36 -97 -67 -100 -70 -3 -3 -39 -33 -80 -66 -41 -33
-86 -69 -100 -80 -72 -58 -366 -365 -440 -459 -356 -453 -589 -945 -696 -1471
-7 -34 -14 -69 -19 -100 -3 -16 -8 -41 -10 -55 -8 -39 -25 -176 -33 -265 -14
-163 -6 -626 13 -720 2 -11 7 -41 10 -66 28 -238 126 -600 227 -839 48 -114
146 -315 186 -385 16 -27 35 -61 43 -75 75 -131 295 -432 327 -449 9 -4 62
-16 117 -26 110 -19 128 -22 165 -29 14 -3 46 -8 73 -11 26 -3 66 -7 90 -10
144 -17 156 -16 168 8 21 38 107 134 157 171 l47 37 -49 147 c-50 150 -151
536 -162 620 -3 26 -8 50 -10 53 -1 3 -6 28 -9 55 -4 27 -8 56 -10 64 -2 8 -7
35 -10 60 -3 25 -8 65 -11 90 -34 272 -40 855 -9 1052 2 13 6 50 10 83 8 75
14 123 20 155 3 14 8 43 11 65 5 32 35 186 60 303 17 81 72 277 110 396 168
513 413 987 737 1420 l74 100 -43 69 c-47 76 -90 193 -99 272 -8 66 -13 97
-17 100 -3 4 -239 61 -278 68 -86 16 -96 16 -130 -5z"/>
<path d="M3410 5943 c-60 -47 -168 -98 -260 -122 -89 -23 -265 -22 -342 2 -45
14 -48 14 -66 -7 -94 -104 -285 -391 -401 -601 -63 -113 -171 -328 -171 -339
0 -3 -11 -29 -24 -58 -124 -271 -261 -738 -301 -1028 -3 -25 -8 -52 -10 -60
-2 -8 -7 -40 -10 -70 -3 -30 -8 -66 -10 -80 -2 -14 -7 -61 -10 -105 -4 -44 -8
-100 -10 -125 -5 -63 -6 -465 -1 -520 3 -25 7 -80 11 -122 3 -42 8 -94 10
-115 9 -72 17 -138 21 -158 2 -10 10 -58 19 -105 8 -47 17 -94 19 -105 3 -11
12 -53 20 -93 28 -131 68 -271 120 -426 l51 -151 70 -7 c151 -15 303 -88 421
-201 69 -68 76 -72 107 -65 19 4 45 9 58 12 230 48 589 168 841 282 364 164
661 349 988 613 133 108 173 144 348 319 l143 143 -30 77 c-66 166 -75 336
-26 492 50 160 130 275 269 385 l38 31 -15 44 c-29 85 -94 256 -127 330 -34
79 -162 339 -199 403 -11 20 -31 54 -42 74 -12 21 -30 49 -40 62 -11 13 -19
28 -19 33 0 5 -4 14 -10 21 -5 7 -39 55 -74 108 -86 130 -278 384 -316 419 -3
3 -33 37 -66 75 -150 171 -393 398 -584 546 -146 113 -315 229 -332 228 -7 0
-33 -16 -58 -36z"/>
<path d="M6600 5125 c-1 -11 -3 -29 -4 -40 -2 -11 -6 -47 -10 -80 -6 -50 -30
-205 -52 -330 -26 -148 -136 -552 -181 -665 -3 -8 -7 -19 -9 -25 -6 -23 -59
-159 -110 -281 l-55 -130 50 -52 c140 -144 210 -321 209 -525 -1 -275 -159
-528 -404 -648 -35 -18 -67 -36 -71 -41 -3 -6 -7 -78 -9 -161 -6 -304 -32
-536 -95 -850 -24 -122 -79 -346 -106 -432 -4 -15 3 -12 33 14 103 90 236 223
377 379 181 201 438 612 546 876 18 44 37 87 42 95 50 94 163 492 194 686 3
17 7 41 10 55 7 40 13 81 20 145 4 33 9 74 12 90 8 58 11 491 3 585 -32 385
-120 746 -264 1089 -69 164 -125 272 -126 246z"/>
<path d="M5225 2207 c-119 -122 -183 -183 -290 -277 -55 -48 -143 -121 -176
-145 -15 -11 -69 -52 -120 -91 -202 -151 -438 -298 -674 -417 -221 -111 -268
-132 -535 -237 -75 -30 -288 -96 -415 -130 -66 -18 -143 -39 -171 -46 l-51
-14 -6 -92 c-7 -100 -29 -183 -70 -267 -15 -29 -27 -57 -27 -62 0 -12 38 -62
145 -189 126 -151 146 -170 185 -175 42 -5 91 -11 185 -22 132 -15 706 -6 735
12 3 2 30 6 60 10 30 3 62 8 70 10 8 2 29 7 45 9 17 3 53 10 80 16 28 6 64 13
80 16 153 31 455 132 630 211 66 30 137 62 157 71 42 19 50 34 123 212 104
254 202 587 249 845 25 137 43 259 51 350 4 39 9 86 11 105 2 19 6 112 10 206
l6 170 -73 27 c-41 15 -76 27 -79 27 -3 0 -63 -60 -135 -133z"/>
</g>
</svg>
